<svg xmlns="http://www.w3.org/2000/svg" version="1.1" xmlns:xlink="http://www.w3.org/1999/xlink" xmlns:svgjs="http://svgjs.com/svgjs" width="633" height="633"><svg version="1.2" baseProfile="tiny-ps" xmlns="http://www.w3.org/2000/svg" xmlns:xlink="http://www.w3.org/1999/xlink" width="633" height="633" viewBox="0 0 633 633">
    <title>Hashedout</title>
    <g id="SvgjsG1000">
        <path fill="#1e2025" d="M484.492,74.3L254.674,304.339c-3.405,3.408-11.223,1.106-17.464-5.141l-50.044-50.093c-6.241-6.247-8.54-14.073-5.136-17.48L411.848,1.582c3.4-3.407,11.223-1.106,17.464,5.141l50.043,50.092C485.6,63.063,487.9,70.889,484.492,74.3Z"></path>
        <path fill="#1e2025" d="M141.74,417.383L72.795,486.4c-1.021,1.023-6.908-3.213-13.149-9.46L9.6,426.843C3.361,420.6-.87,414.7.151,413.681L69.1,344.668c1.021-1.022,6.908,3.213,13.149,9.46l50.043,50.093C138.53,410.468,142.761,416.36,141.74,417.383Z"></path>
        <path fill="#fd375b" d="M210.676,450.407L3.833,243.362c-3.064-3.067-.485-10.621,5.76-16.872l50.076-50.125c6.245-6.251,13.791-8.832,16.855-5.765L283.367,377.645c3.064,3.066.485,10.62-5.759,16.871l-50.077,50.125C221.286,450.892,213.74,453.473,210.676,450.407Z"></path>
        <path fill="#1e2025" d="M430.2,419.533L221.829,628.105c-3.086,3.089-10.648.53-16.889-5.717L154.9,572.3c-6.241-6.247-8.8-13.816-5.712-16.905L357.554,346.819c3.086-3.09,10.648-.53,16.888,5.717l50.044,50.092C430.727,408.875,433.284,416.444,430.2,419.533Z"></path>
        <path fill="#fd375b" d="M558.773,504.721L328.947,274.671c-3.405-3.407-1.105-11.234,5.135-17.481l50.042-50.09c6.24-6.246,14.059-8.548,17.463-5.14L631.413,432.01c3.4,3.407,1.105,11.234-5.136,17.48l-50.041,50.09C570,505.827,562.177,508.129,558.773,504.721Z"></path>
        <path fill="#1e2025" d="M611.518,238.036l-68.945,69.012c-1.021,1.023-6.909-3.213-13.149-9.46L479.38,247.5c-6.241-6.247-10.472-12.14-9.451-13.162l68.946-69.013c1.021-1.022,6.908,3.213,13.149,9.46l50.043,50.093C608.308,231.121,612.54,237.014,611.518,238.036Z"></path>
        <path fill="#fd375b" d="M216.006,161.62L147.058,92.6c-1.021-1.022,3.21-6.915,9.45-13.162l50.042-50.09c6.24-6.247,12.127-10.482,13.148-9.46l68.948,69.015c1.021,1.022-3.21,6.915-9.45,13.162l-50.042,50.09C222.914,158.407,217.027,162.642,216.006,161.62Z"></path>
        <path fill="#fd375b" d="M391.947,631.854L323,562.839c-1.021-1.022,3.214-6.918,9.459-13.169l50.076-50.125c6.245-6.251,12.135-10.49,13.156-9.468l68.948,69.015c1.021,1.022-3.213,6.918-9.458,13.17L405.1,622.387C398.859,628.638,392.968,632.876,391.947,631.854Z"></path>
    </g>
</svg><style>@media (prefers-color-scheme: light) { :root { filter: none; } }
@media (prefers-color-scheme: dark) { :root { filter: contrast(0.8333333333333334) brightness(1.7); } }
</style></svg>